<svg xmlns="http://www.w3.org/2000/svg" viewBox="0 0 17.17871 25.79755"><defs><style>.cls-1{fill:#fff;}</style></defs><g id="Layer_2" data-name="Layer 2"><g id="Layer_3" data-name="Layer 3"><path class="cls-1" d="M15.7425,6.98423V5.61814A1.589,1.589,0,0,0,17.17871,4.062V1.55851A1.58826,1.58826,0,0,0,15.59749,0H1.58162A1.5895,1.5895,0,0,0,0,1.56449v2.5039A1.58842,1.58842,0,0,0,1.43661,5.61854V6.98423a3.13116,3.13116,0,0,0,1.1892,2.46924l4.29388,3.433L2.72381,16.1409a3.16227,3.16227,0,0,0-1.22506,2.49872v1.535A1.58953,1.58953,0,0,0,0,21.73553V24.239a1.58826,1.58826,0,0,0,1.58122,1.55852H15.59709a1.5895,1.5895,0,0,0,1.58162-1.56449v-2.5035a1.58792,1.58792,0,0,0-1.37366-1.54338V18.65a3.20084,3.20084,0,0,0-1.25135-2.51386l-4.28352-3.25766L14.5529,9.45427A3.13421,3.13421,0,0,0,15.7425,6.98423ZM2.64374,22.23751l12.12031.01035a.59635.59635,0,0,0,.11-.01035h.23983v1.49517H2.06487V22.23791l.46851.00995A.60751.60751,0,0,0,2.64374,22.23751ZM15.11384,2.06527V3.56H2.06487V2.06527ZM13.73978,20.17264H3.564V18.63842a1.0937,1.0937,0,0,1,.42549-.86491l4.60542-3.57279,4.70781,3.57837a1.11606,1.11606,0,0,1,.437.87407Zm-.06215-13.188a1.08563,1.08563,0,0,1-.41313.85495L8.59055,11.57691,3.91461,7.83918a1.08427,1.08427,0,0,1-.41313-.85455V5.62491H13.67763Z"/></g></g></svg>