<svg xmlns="http://www.w3.org/2000/svg" viewBox="0 0 27.09321 25.04854"><defs><style>.cls-1{fill:#fff;}</style></defs><g id="Layer_2" data-name="Layer 2"><g id="Layer_3" data-name="Layer 3"><path class="cls-1" d="M4.90482,10.4076a.847.847,0,0,0,1.197,0L7.19663,9.31276a.847.847,0,0,0,0-1.197L6.10179,7.021H21.16657a2.54268,2.54268,0,0,1,2.54,2.54,1.27168,1.27168,0,0,0,1.27,1.27h.84666a1.27168,1.27168,0,0,0,1.27-1.27A5.93315,5.93315,0,0,0,21.16657,3.6343H6.10179L7.19663,2.53946a.847.847,0,0,0,0-1.197L6.10179.24765a.847.847,0,0,0-1.197,0L.12382,5.02812a.42415.42415,0,0,0,0,.599Z"/><path class="cls-1" d="M22.18839,14.64092a.847.847,0,0,0-1.197,0l-1.09485,1.09484a.84537.84537,0,0,0,0,1.197l1.09485,1.09484H5.92664a2.54268,2.54268,0,0,1-2.54-2.54,1.27168,1.27168,0,0,0-1.27-1.27H1.27a1.27168,1.27168,0,0,0-1.27,1.27,5.93315,5.93315,0,0,0,5.92664,5.92664H20.99142l-1.09485,1.09484a.84537.84537,0,0,0,0,1.197l1.09485,1.09484a.847.847,0,0,0,1.197,0l4.781-4.78047a.42413.42413,0,0,0,0-.599Z"/></g></g></svg>