<svg xmlns="http://www.w3.org/2000/svg" viewBox="0 0 26.35937 29.13722"><defs><style>.cls-1{fill:#fff;}</style></defs><g id="Layer_2" data-name="Layer 2"><g id="Layer_3" data-name="Layer 3"><path class="cls-1" d="M22.49372,8.60413h3.18664a.679.679,0,0,1,.679.679v19.175a.679.679,0,0,1-.679.679H22.49372a.679.679,0,0,1-.679-.679l0-19.175A.679.679,0,0,1,22.49372,8.60413ZM15.222,12.23983h3.18664a.679.679,0,0,1,.679.679V28.45822a.679.679,0,0,1-.679.679H15.222a.679.679,0,0,1-.679-.679V12.91883A.679.679,0,0,1,15.222,12.23983ZM7.9507,16.78448h3.18664a.679.679,0,0,1,.679.679V28.45816a.679.679,0,0,1-.679.679H7.9507a.679.679,0,0,1-.679-.679V17.46348A.679.679,0,0,1,7.9507,16.78448ZM.679,21.78385H3.86565a.679.679,0,0,1,.679.679v5.99537a.679.679,0,0,1-.679.679H.679a.679.679,0,0,1-.679-.679V22.46285A.679.679,0,0,1,.679,21.78385ZM24.19836,1.33279l-.53181,3.30448a.679.679,0,0,1-.779.56238L22.88345,5.199a.679.679,0,0,1-.56173-.77861l.1417-.87673a.30191.30191,0,0,0-.45687-.30493L2.18684,15.49927a.679.679,0,0,1-.93511-.221l-.00482-.00781a.679.679,0,0,1,.22074-.934L21.27872,2.08377a.30191.30191,0,0,0-.106-.554l-.97208-.17267a.679.679,0,0,1-.55148-.77728l.00153-.00942a.679.679,0,0,1,.78415-.56063L23.6419.55552A.679.679,0,0,1,24.19836,1.33279Z"/></g></g></svg>