<svg xmlns="http://www.w3.org/2000/svg" xmlns:xlink="http://www.w3.org/1999/xlink" viewBox="0 0 128 128"><defs><style>.cls-1{fill:url(#linear-gradient);}.cls-2{fill:url(#linear-gradient-2);}.cls-3{fill:url(#linear-gradient-3);}.cls-4{fill:url(#linear-gradient-4);}.cls-5{fill:url(#linear-gradient-5);}</style><linearGradient id="linear-gradient" x1="118.20678" y1="15.10213" x2="11.3551" y2="111.48896" gradientUnits="userSpaceOnUse"><stop offset="0" stop-color="#38e9fd"/><stop offset="1" stop-color="#26a4fe"/></linearGradient><linearGradient id="linear-gradient-2" x1="61.07919" y1="39.70415" x2="61.07919" y2="99.20372" gradientUnits="userSpaceOnUse"><stop offset="0" stop-color="#ff9ddb"/><stop offset="1" stop-color="#ffc8ff"/></linearGradient><linearGradient id="linear-gradient-3" x1="88.87455" y1="51.11516" x2="88.87455" y2="57.01665" xlink:href="#linear-gradient-2"/><linearGradient id="linear-gradient-4" x1="94.40039" y1="39.70415" x2="94.40039" y2="45.65468" xlink:href="#linear-gradient-2"/><linearGradient id="linear-gradient-5" x1="61.2779" y1="99.20372" x2="61.2779" y2="39.70415" gradientUnits="userSpaceOnUse"><stop offset="0.3" stop-color="#26a4fe"/><stop offset="1" stop-color="#38e9fd"/></linearGradient></defs><g id="Layer_2" data-name="Layer 2"><g id="Layer_1-2" data-name="Layer 1"><circle class="cls-1" cx="64" cy="64" r="64"/><circle cx="64" cy="64" r="58.01541"/><polygon class="cls-2" points="75.566 62.472 93.962 62.472 75.751 99.204 57.704 99.204 42.416 68.368 39.488 62.472 31.147 45.655 28.223 39.759 28.196 39.704 47.316 39.704 47.343 39.759 50.153 45.655 58.172 62.472 60.981 68.368 66.616 80.198 67.149 80.198 68.739 76.844 75.566 62.472"/><polygon class="cls-3" points="80.961 51.115 99.591 51.115 96.668 57.017 78.158 57.017 80.961 51.115"/><polygon class="cls-4" points="105.248 39.704 102.297 45.655 83.553 45.655 86.378 39.704 105.248 39.704"/><path class="cls-5" d="M70.122,62.47175H88.51794L70.3071,99.20372H52.25961L36.9723,68.36785l-2.929-5.8961L25.70281,45.65468l-2.92354-5.8961-.02721-.05443h19.12l.02722.05443,2.80922,5.8961L52.7278,62.47175l2.80919,5.8961,5.63476,11.83023h.53352l1.5897-3.35364Zm2.59144-5.4551H91.22372l2.92353-5.90149h-18.63Zm8.22073-17.3125-2.82554,5.95053H96.853l2.95074-5.95053Z"/></g></g></svg>