<svg xmlns="http://www.w3.org/2000/svg" xmlns:xlink="http://www.w3.org/1999/xlink" viewBox="0 0 128 128"><defs><style>.cls-1{fill:url(#linear-gradient);}.cls-2{fill:url(#linear-gradient-2);}.cls-3{fill:url(#linear-gradient-3);}</style><linearGradient id="linear-gradient" x1="22.86064" y1="113.02799" x2="105.13936" y2="14.97201" gradientUnits="userSpaceOnUse"><stop offset="0" stop-color="#ffba00"/><stop offset="1" stop-color="#ffd666"/></linearGradient><linearGradient id="linear-gradient-2" x1="66.78213" y1="39.78587" x2="66.78213" y2="99.20216" gradientUnits="userSpaceOnUse"><stop offset="0" stop-color="#ff9ddb"/><stop offset="1" stop-color="#ffc8ff"/></linearGradient><linearGradient id="linear-gradient-3" x1="61.21787" y1="99.20216" x2="61.21787" y2="39.78587" gradientUnits="userSpaceOnUse"><stop offset="0" stop-color="#ffbf00"/><stop offset="1" stop-color="#ff65ac"/></linearGradient></defs><g id="Layer_2" data-name="Layer 2"><g id="Layer_1-2" data-name="Layer 1"><circle class="cls-1" cx="64" cy="64" r="64"/><circle cx="64" cy="64" r="58.01541"/><polygon class="cls-2" points="105.472 39.786 76.021 99.202 57.562 99.202 41.923 67.669 38.93 61.634 30.391 44.433 28.092 39.786 47.623 39.786 49.835 44.433 58.039 61.634 60.908 67.669 64.161 74.485 66.677 79.764 67.222 79.764 68.852 76.338 86.201 39.786 105.472 39.786"/><polygon class="cls-3" points="99.908 39.786 70.45 99.202 51.991 99.202 36.352 67.663 33.359 61.634 24.827 44.433 22.528 39.786 42.053 39.786 44.265 44.433 52.469 61.634 55.344 67.663 61.106 79.764 61.652 79.764 63.281 76.332 64.161 74.485 80.631 39.786 99.908 39.786"/></g></g></svg>